<?xml version="1.0" encoding="UTF-8"?>
<!DOCTYPE svg PUBLIC "-//W3C//DTD SVG 1.1//EN" "http://www.w3.org/Graphics/SVG/1.1/DTD/svg11.dtd">
<svg xmlns="http://www.w3.org/2000/svg" version="1.1" width="640px" height="640px" style="shape-rendering:geometricPrecision; text-rendering:geometricPrecision; image-rendering:optimizeQuality; fill-rule:evenodd; clip-rule:evenodd" xmlns:xlink="http://www.w3.org/1999/xlink">
<g><path style="opacity:0.921" fill="#1598fd" d="M 354.5,290.5 C 353.662,290.158 353.328,289.492 353.5,288.5C 353.666,282.491 353.499,276.491 353,270.5C 351.25,265.24 347.75,262.24 342.5,261.5C 342.5,260.5 342.5,259.5 342.5,258.5C 337.389,257.838 337.389,256.672 342.5,255C 341.228,252.956 341.561,251.122 343.5,249.5C 346.465,249.47 349.465,248.637 352.5,247C 352.043,246.586 351.709,246.086 351.5,245.5C 354.009,240.713 354.009,235.88 351.5,231C 354.167,230 354.167,229 351.5,228C 353.207,227.805 354.874,227.805 356.5,228C 356.167,227.667 355.833,227.333 355.5,227C 357.892,224.727 357.892,222.56 355.5,220.5C 358.362,219.694 358.862,218.361 357,216.5C 355.989,217.337 354.822,217.67 353.5,217.5C 353.5,216.5 353.5,215.5 353.5,214.5C 350.606,214.444 347.939,213.61 345.5,212C 347.24,210.173 348.907,210.34 350.5,212.5C 352.998,209.809 355.165,210.142 357,213.5C 356.981,211.893 356.815,210.226 356.5,208.5C 354.41,208.55 353.077,207.55 352.5,205.5C 353.881,203.309 355.881,201.976 358.5,201.5C 357.975,200.808 357.308,200.308 356.5,200C 357.804,199.196 358.471,198.029 358.5,196.5C 356.057,193.527 354.39,190.527 353.5,187.5C 353.667,186.833 353.833,186.167 354,185.5C 354.667,186.833 355.333,186.833 356,185.5C 357.174,182.761 358.007,180.261 358.5,178C 355.99,175.688 353.324,174.522 350.5,174.5C 351.791,173.175 353.124,171.842 354.5,170.5C 357.619,172.727 358.286,171.727 356.5,167.5C 357.5,166.833 358.5,166.167 359.5,165.5C 358.726,164.289 357.893,164.289 357,165.5C 355.156,163.829 354.49,161.829 355,159.5C 355.368,160.91 356.201,161.91 357.5,162.5C 357.94,161.302 358.273,160.135 358.5,159C 357.776,156.33 356.109,154.83 353.5,154.5C 353.421,153.07 353.754,151.736 354.5,150.5C 355.274,149.289 356.107,149.289 357,150.5C 357.306,148.094 358.139,145.927 359.5,144C 358.5,142.333 357.5,140.667 356.5,139C 357.148,137.56 357.481,136.06 357.5,134.5C 356.5,134.5 355.5,134.5 354.5,134.5C 354.328,130.029 353.494,129.696 352,133.5C 351.833,132.333 351.667,131.167 351.5,130C 352.073,127.994 352.073,126.16 351.5,124.5C 352.325,123.614 353.325,123.281 354.5,123.5C 354.443,127.133 355.443,127.3 357.5,124C 356.224,122.788 354.724,121.955 353,121.5C 351.674,121.755 350.674,122.422 350,123.5C 349.5,123 349,122.5 348.5,122C 349.33,120.253 350.33,118.587 351.5,117C 349.323,113.323 346.323,110.49 342.5,108.5C 342.709,107.914 343.043,107.414 343.5,107C 340.443,102 336.61,97.8334 332,94.5C 327.429,93.7765 323.095,92.4432 319,90.5C 317.441,91.0294 315.941,91.696 314.5,92.5C 313.914,92.2907 313.414,91.9574 313,91.5C 307.73,93.8566 303.23,96.1899 299.5,98.5C 299.5,99.5 299.5,100.5 299.5,101.5C 298.5,101.5 297.5,101.5 296.5,101.5C 296.085,97.6393 295.085,93.9726 293.5,90.5C 292.448,90.6495 291.448,90.4828 290.5,90C 292.811,87.7944 292.811,85.961 290.5,84.5C 289.932,66.7436 290.765,49.0769 293,31.5C 296.792,27.8724 301.292,26.7057 306.5,28C 316.27,31.0956 323.27,37.4289 327.5,47C 328.833,47.1667 330.167,47.3333 331.5,47.5C 353.885,43.2194 376.385,39.2194 399,35.5C 399.414,35.9574 399.914,36.2907 400.5,36.5C 413.518,33.6219 426.685,31.6219 440,30.5C 452.711,30.6753 464.044,34.6753 474,42.5C 474.953,44.4552 476.287,46.1218 478,47.5C 480.453,52.6404 482.953,57.807 485.5,63C 485.167,63.3333 484.833,63.6667 484.5,64C 485.248,68.7772 485.914,73.6106 486.5,78.5C 486.047,83.9824 485.213,89.3157 484,94.5C 483.823,129.363 483.323,164.196 482.5,199C 482.645,199.772 482.978,200.439 483.5,201C 482.207,211.115 481.04,221.282 480,231.5C 478.314,237.567 476.314,243.567 474,249.5C 468.731,256.047 462.397,261.38 455,265.5C 454.51,266.793 454.343,268.127 454.5,269.5C 428.231,277.646 401.898,285.479 375.5,293C 370.5,293.667 365.5,293.667 360.5,293C 358.189,292.764 356.189,291.931 354.5,290.5 Z"/></g>
<g><path style="opacity:0.004" fill="#4d65ff" d="M 274.5,51.5 C 278.3,51.8194 278.466,52.8194 275,54.5C 274.517,53.552 274.351,52.552 274.5,51.5 Z"/></g>
<g><path style="opacity:0.009" fill="#2185ff" d="M 276.5,64.5 C 275.5,64.5 274.5,64.5 273.5,64.5C 273.167,63.8333 272.833,63.1667 272.5,62.5C 274.842,61.7893 275.175,60.456 273.5,58.5C 273.415,57.0047 274.081,56.0047 275.5,55.5C 276.484,58.4281 276.817,61.4281 276.5,64.5 Z"/></g>
<g><path style="opacity:0.006" fill="#00fffe" d="M 273.5,58.5 C 275.175,60.456 274.842,61.7893 272.5,62.5C 272.232,60.901 272.566,59.5676 273.5,58.5 Z"/></g>
<g><path style="opacity:0.016" fill="#26b8f8" d="M 273.5,64.5 C 274.5,64.5 275.5,64.5 276.5,64.5C 276.5,67.8333 276.5,71.1667 276.5,74.5C 275.609,73.8902 274.609,73.5569 273.5,73.5C 272.167,70.5 272.167,67.5 273.5,64.5 Z"/></g>
<g><path style="opacity:0.008" fill="#3765ff" d="M 273.5,73.5 C 274.609,73.5569 275.609,73.8902 276.5,74.5C 276.5,75.5 276.5,76.5 276.5,77.5C 275.833,77.1667 275.167,76.8333 274.5,76.5C 274.436,75.6348 274.103,74.6348 273.5,73.5 Z"/></g>
<g><path style="opacity:0.005" fill="#00fffe" d="M 274.5,76.5 C 275.167,76.8333 275.833,77.1667 276.5,77.5C 276.5,78.5 276.5,79.5 276.5,80.5C 275.5,80.1667 274.833,79.5 274.5,78.5C 274.5,77.8333 274.5,77.1667 274.5,76.5 Z"/></g>
<g><path style="opacity:0.008" fill="#4557ff" d="M 274.5,78.5 C 274.833,79.5 275.5,80.1667 276.5,80.5C 276.5,81.1667 276.5,81.8333 276.5,82.5C 274.973,82.573 273.973,81.9063 273.5,80.5C 273.328,79.5084 273.662,78.8417 274.5,78.5 Z"/></g>
<g><path style="opacity:0.916" fill="#fd1c3c" d="M 273.5,80.5 C 273.973,81.9063 274.973,82.573 276.5,82.5C 276.032,86.4674 277.032,89.9674 279.5,93C 280.793,93.49 282.127,93.6567 283.5,93.5C 283.178,95.7224 283.845,97.5557 285.5,99C 289.444,100.758 293.111,102.925 296.5,105.5C 296.5,105.833 296.5,106.167 296.5,106.5C 294.834,109.249 293.668,112.249 293,115.5C 292.5,122.492 292.334,129.492 292.5,136.5C 288.696,170.203 287.696,204.203 289.5,238.5C 290.001,240.655 291.001,242.322 292.5,243.5C 293.122,246.776 295.122,248.109 298.5,247.5C 300.279,248.67 301.279,250.336 301.5,252.5C 304.144,252.16 306.477,252.827 308.5,254.5C 309.086,254.291 309.586,253.957 310,253.5C 312.511,255.625 315.344,256.958 318.5,257.5C 318.937,259.074 319.937,260.241 321.5,261C 325.395,262.266 329.395,262.766 333.5,262.5C 334.714,268.585 337.047,274.085 340.5,279C 341.448,279.483 342.448,279.649 343.5,279.5C 343.459,284.126 345.792,286.459 350.5,286.5C 351.5,287.167 352.5,287.833 353.5,288.5C 353.328,289.492 353.662,290.158 354.5,290.5C 353.955,307.177 353.122,323.844 352,340.5C 343.633,345.391 336.299,344.058 330,336.5C 324.737,329.151 322.07,320.818 322,311.5C 320.376,309.842 318.709,308.175 317,306.5C 312.966,311.101 308.133,314.601 302.5,317C 296.511,317.821 290.678,318.321 285,318.5C 278.288,319.378 272.121,321.545 266.5,325C 258.096,326.611 250.429,325.111 243.5,320.5C 239.43,325.375 234.43,329.042 228.5,331.5C 227.914,331.291 227.414,330.957 227,330.5C 226.097,331.701 224.931,332.535 223.5,333C 219.5,333.333 215.5,333.667 211.5,334C 198.777,342.191 186.111,341.858 173.5,333C 170.24,328.746 167.407,324.246 165,319.5C 163.333,312.495 161.666,305.495 160,298.5C 158.648,276.875 156.814,255.542 154.5,234.5C 155.158,221.802 155.158,209.135 154.5,196.5C 154.952,187.311 155.619,178.144 156.5,169C 156.294,167.634 155.96,166.301 155.5,165C 156.189,158.841 156.855,152.675 157.5,146.5C 160.791,140.752 164.458,135.252 168.5,130C 173.65,126.503 179.317,124.17 185.5,123C 191.819,113.503 200.819,108.669 212.5,108.5C 221.328,96.7219 232.994,92.5552 247.5,96C 254.085,86.8051 262.751,81.6384 273.5,80.5 Z"/></g>
<g><path style="opacity:0.835" fill="#6c6eba" d="M 283.5,93.5 C 284.833,93.5 286.167,93.5 287.5,93.5C 287.633,96.8957 288.633,97.2291 290.5,94.5C 294.983,95.3996 295.317,96.7329 291.5,98.5C 292.689,99.4287 294.022,99.762 295.5,99.5C 295.629,101.216 295.962,102.883 296.5,104.5C 296.5,104.833 296.5,105.167 296.5,105.5C 293.111,102.925 289.444,100.758 285.5,99C 283.845,97.5557 283.178,95.7224 283.5,93.5 Z"/></g>
<g><path style="opacity:0.96" fill="#080c9d" d="M 330.5,249.5 C 325.545,249.04 321.045,247.374 317,244.5C 314.783,243.468 312.617,243.468 310.5,244.5C 307.013,241.584 303.346,238.75 299.5,236C 300.308,235.692 300.975,235.192 301.5,234.5C 302.262,231.594 303.262,228.76 304.5,226C 304.259,224.016 303.592,222.183 302.5,220.5C 303.167,219.5 303.833,218.5 304.5,217.5C 301.687,214.753 301.021,211.586 302.5,208C 301.899,206.395 300.899,205.062 299.5,204C 300.677,195.866 300.677,187.699 299.5,179.5C 302.079,175.015 302.079,170.515 299.5,166C 299.917,163.502 300.251,161.002 300.5,158.5C 299.325,158.719 298.325,158.386 297.5,157.5C 298.65,153.046 299.984,148.713 301.5,144.5C 300.603,141.435 298.603,139.602 295.5,139C 296.448,138.517 297.448,138.351 298.5,138.5C 298.285,136.226 297.618,134.059 296.5,132C 296.769,130.393 297.603,129.226 299,128.5C 299.071,124.313 299.738,120.313 301,116.5C 301.747,113.076 301.58,109.743 300.5,106.5C 302.143,106.52 303.476,105.853 304.5,104.5C 305.611,105.611 306.945,106.278 308.5,106.5C 316.28,106.732 324.28,106.065 332.5,104.5C 332.125,119.08 332.125,133.58 332.5,148C 331.726,150.405 331.226,152.905 331,155.5C 329.606,186.839 329.439,218.172 330.5,249.5 Z"/></g>
<g><path style="opacity:0.939" fill="#a6155f" d="M 296.5,106.5 C 297.192,109.418 297.525,112.418 297.5,115.5C 295.408,117.789 295.074,120.289 296.5,123C 296,123.5 295.5,124 295,124.5C 294.508,130.576 294.008,136.409 293.5,142C 295.119,142.236 296.119,143.069 296.5,144.5C 295.5,144.5 294.5,144.5 293.5,144.5C 293.198,152.556 293.531,160.556 294.5,168.5C 294.058,169.739 293.391,170.739 292.5,171.5C 292.5,159.833 292.5,148.167 292.5,136.5C 292.334,129.492 292.5,122.492 293,115.5C 293.668,112.249 294.834,109.249 296.5,106.5 Z"/></g>
<g><path style="opacity:1" fill="#1257d0" d="M 334.5,167.5 C 332.679,174.266 331.679,181.266 331.5,188.5C 331.834,192.527 332.168,196.361 332.5,200C 332,200.5 331.5,201 331,201.5C 330.091,207.137 330.591,212.637 332.5,218C 331.675,229.789 331.675,241.622 332.5,253.5C 331.833,253.5 331.5,253.167 331.5,252.5C 331.737,251.209 331.404,250.209 330.5,249.5C 329.439,218.172 329.606,186.839 331,155.5C 331.226,152.905 331.726,150.405 332.5,148C 332.125,133.58 332.125,119.08 332.5,104.5C 324.28,106.065 316.28,106.732 308.5,106.5C 306.945,106.278 305.611,105.611 304.5,104.5C 303.476,105.853 302.143,106.52 300.5,106.5C 299.167,106.167 297.833,105.833 296.5,105.5C 296.5,105.167 296.5,104.833 296.5,104.5C 298.262,104.357 299.929,104.691 301.5,105.5C 302.623,104.456 303.956,103.79 305.5,103.5C 314.843,103.592 324.177,103.592 333.5,103.5C 334.73,112.259 335.063,120.926 334.5,129.5C 335.5,129.5 336.5,129.5 337.5,129.5C 337.146,131.541 337.146,133.374 337.5,135C 332.298,136.352 332.298,137.518 337.5,138.5C 334.077,141.42 333.744,144.587 336.5,148C 334.954,149.44 334.121,151.273 334,153.5C 333.352,158.204 333.519,162.871 334.5,167.5 Z"/></g>
<g><path style="opacity:0.944" fill="#df1a49" d="M 292.5,136.5 C 292.5,148.167 292.5,159.833 292.5,171.5C 291.676,174.764 291.342,178.098 291.5,181.5C 290.883,181.611 290.383,181.944 290,182.5C 289.333,199.167 289.333,215.833 290,232.5C 291.15,236.112 291.983,239.778 292.5,243.5C 291.001,242.322 290.001,240.655 289.5,238.5C 287.696,204.203 288.696,170.203 292.5,136.5 Z"/></g>
<g><path style="opacity:0.996" fill="#168ef5" d="M 290.5,84.5 C 292.811,85.961 292.811,87.7944 290.5,90C 291.448,90.4828 292.448,90.6495 293.5,90.5C 295.085,93.9726 296.085,97.6393 296.5,101.5C 297.5,101.5 298.5,101.5 299.5,101.5C 299.5,100.5 299.5,99.5 299.5,98.5C 303.23,96.1899 307.73,93.8566 313,91.5C 313.414,91.9574 313.914,92.2907 314.5,92.5C 315.941,91.696 317.441,91.0294 319,90.5C 323.095,92.4432 327.429,93.7765 332,94.5C 336.61,97.8334 340.443,102 343.5,107C 343.043,107.414 342.709,107.914 342.5,108.5C 346.323,110.49 349.323,113.323 351.5,117C 350.33,118.587 349.33,120.253 348.5,122C 349,122.5 349.5,123 350,123.5C 350.674,122.422 351.674,121.755 353,121.5C 354.724,121.955 356.224,122.788 357.5,124C 355.443,127.3 354.443,127.133 354.5,123.5C 353.325,123.281 352.325,123.614 351.5,124.5C 352.073,126.16 352.073,127.994 351.5,130C 351.667,131.167 351.833,132.333 352,133.5C 353.494,129.696 354.328,130.029 354.5,134.5C 355.5,134.5 356.5,134.5 357.5,134.5C 357.481,136.06 357.148,137.56 356.5,139C 357.5,140.667 358.5,142.333 359.5,144C 358.139,145.927 357.306,148.094 357,150.5C 356.107,149.289 355.274,149.289 354.5,150.5C 353.754,151.736 353.421,153.07 353.5,154.5C 356.109,154.83 357.776,156.33 358.5,159C 358.273,160.135 357.94,161.302 357.5,162.5C 356.201,161.91 355.368,160.91 355,159.5C 354.49,161.829 355.156,163.829 357,165.5C 357.893,164.289 358.726,164.289 359.5,165.5C 358.5,166.167 357.5,166.833 356.5,167.5C 358.286,171.727 357.619,172.727 354.5,170.5C 353.124,171.842 351.791,173.175 350.5,174.5C 353.324,174.522 355.99,175.688 358.5,178C 358.007,180.261 357.174,182.761 356,185.5C 355.333,186.833 354.667,186.833 354,185.5C 353.833,186.167 353.667,186.833 353.5,187.5C 354.39,190.527 356.057,193.527 358.5,196.5C 358.471,198.029 357.804,199.196 356.5,200C 357.308,200.308 357.975,200.808 358.5,201.5C 355.881,201.976 353.881,203.309 352.5,205.5C 353.077,207.55 354.41,208.55 356.5,208.5C 356.815,210.226 356.981,211.893 357,213.5C 355.165,210.142 352.998,209.809 350.5,212.5C 348.907,210.34 347.24,210.173 345.5,212C 347.939,213.61 350.606,214.444 353.5,214.5C 353.5,215.5 353.5,216.5 353.5,217.5C 354.822,217.67 355.989,217.337 357,216.5C 358.862,218.361 358.362,219.694 355.5,220.5C 357.892,222.56 357.892,224.727 355.5,227C 355.833,227.333 356.167,227.667 356.5,228C 354.874,227.805 353.207,227.805 351.5,228C 354.167,229 354.167,230 351.5,231C 354.009,235.88 354.009,240.713 351.5,245.5C 351.709,246.086 352.043,246.586 352.5,247C 349.465,248.637 346.465,249.47 343.5,249.5C 341.561,251.122 341.228,252.956 342.5,255C 337.389,256.672 337.389,257.838 342.5,258.5C 342.5,259.5 342.5,260.5 342.5,261.5C 347.75,262.24 351.25,265.24 353,270.5C 353.499,276.491 353.666,282.491 353.5,288.5C 352.5,287.833 351.5,287.167 350.5,286.5C 350.5,285.5 350.5,284.5 350.5,283.5C 351.408,281.548 351.241,279.548 350,277.5C 347.965,274.132 345.299,271.465 342,269.5C 341.814,267.1 341.314,264.766 340.5,262.5C 338.192,262.035 336.858,260.701 336.5,258.5C 336.167,257.833 335.833,257.167 335.5,256.5C 335.109,251.989 335.775,247.655 337.5,243.5C 336.432,240.3 335.432,237.133 334.5,234C 336.046,231.628 335.712,229.628 333.5,228C 335.488,227.82 337.488,227.986 339.5,228.5C 339.329,225.203 339.995,224.869 341.5,227.5C 340.061,229.698 340.394,230.365 342.5,229.5C 343.236,227.207 343.402,224.874 343,222.5C 343.815,224.623 344.815,226.623 346,228.5C 349.466,226.819 349.3,225.819 345.5,225.5C 345.318,223.409 345.652,221.409 346.5,219.5C 344.141,218.295 341.974,218.628 340,220.5C 339.5,220.333 339,220.167 338.5,220C 339.308,219.692 339.975,219.192 340.5,218.5C 339.311,217.571 337.978,217.238 336.5,217.5C 336.343,216.127 336.51,214.793 337,213.5C 337.368,214.91 338.201,215.91 339.5,216.5C 340.711,215.726 340.711,214.893 339.5,214C 344.288,211.879 344.954,209.212 341.5,206C 342.325,204.312 343.325,204.145 344.5,205.5C 345.287,204.758 345.953,203.925 346.5,203C 341.615,199.698 341.281,196.031 345.5,192C 343.744,191.86 342.078,192.36 340.5,193.5C 335.979,190.628 335.645,187.461 339.5,184C 337.641,183.316 335.974,182.316 334.5,181C 335.711,179.887 335.711,178.72 334.5,177.5C 338.214,176.332 338.548,173.832 335.5,170C 336.833,170 338.167,170 339.5,170C 338.347,168.117 336.681,167.284 334.5,167.5C 333.519,162.871 333.352,158.204 334,153.5C 334.121,151.273 334.954,149.44 336.5,148C 333.744,144.587 334.077,141.42 337.5,138.5C 332.298,137.518 332.298,136.352 337.5,135C 337.146,133.374 337.146,131.541 337.5,129.5C 336.5,129.5 335.5,129.5 334.5,129.5C 335.063,120.926 334.73,112.259 333.5,103.5C 324.177,103.592 314.843,103.592 305.5,103.5C 303.956,103.79 302.623,104.456 301.5,105.5C 299.929,104.691 298.262,104.357 296.5,104.5C 295.962,102.883 295.629,101.216 295.5,99.5C 294.022,99.762 292.689,99.4287 291.5,98.5C 295.317,96.7329 294.983,95.3996 290.5,94.5C 288.633,97.2291 287.633,96.8957 287.5,93.5C 289.483,90.8838 290.483,87.8838 290.5,84.5 Z"/></g>
<g><path style="opacity:1" fill="#157feb" d="M 334.5,167.5 C 336.681,167.284 338.347,168.117 339.5,170C 338.167,170 336.833,170 335.5,170C 338.548,173.832 338.214,176.332 334.5,177.5C 335.711,178.72 335.711,179.887 334.5,181C 335.974,182.316 337.641,183.316 339.5,184C 335.645,187.461 335.979,190.628 340.5,193.5C 342.078,192.36 343.744,191.86 345.5,192C 341.281,196.031 341.615,199.698 346.5,203C 345.953,203.925 345.287,204.758 344.5,205.5C 343.325,204.145 342.325,204.312 341.5,206C 344.954,209.212 344.288,211.879 339.5,214C 340.711,214.893 340.711,215.726 339.5,216.5C 338.201,215.91 337.368,214.91 337,213.5C 336.51,214.793 336.343,216.127 336.5,217.5C 337.978,217.238 339.311,217.571 340.5,218.5C 339.975,219.192 339.308,219.692 338.5,220C 339,220.167 339.5,220.333 340,220.5C 341.974,218.628 344.141,218.295 346.5,219.5C 345.652,221.409 345.318,223.409 345.5,225.5C 349.3,225.819 349.466,226.819 346,228.5C 344.815,226.623 343.815,224.623 343,222.5C 343.402,224.874 343.236,227.207 342.5,229.5C 340.394,230.365 340.061,229.698 341.5,227.5C 339.995,224.869 339.329,225.203 339.5,228.5C 337.488,227.986 335.488,227.82 333.5,228C 335.712,229.628 336.046,231.628 334.5,234C 335.432,237.133 336.432,240.3 337.5,243.5C 335.775,247.655 335.109,251.989 335.5,256.5C 333.81,256.144 332.81,255.144 332.5,253.5C 331.675,241.622 331.675,229.789 332.5,218C 330.591,212.637 330.091,207.137 331,201.5C 331.5,201 332,200.5 332.5,200C 332.168,196.361 331.834,192.527 331.5,188.5C 331.679,181.266 332.679,174.266 334.5,167.5 Z"/></g>
<g><path style="opacity:0.994" fill="#650f78" d="M 296.5,144.5 C 294.856,151.331 295.189,157.998 297.5,164.5C 295.979,166.286 295.646,168.119 296.5,170C 295.667,170.833 294.833,171.667 294,172.5C 293.254,177.042 293.421,181.542 294.5,186C 294.056,187.762 293.556,187.595 293,185.5C 292.082,188.063 292.582,190.23 294.5,192C 293.106,192.956 292.439,194.289 292.5,196C 294.391,199.38 294.724,202.88 293.5,206.5C 293.919,207.672 294.585,208.672 295.5,209.5C 293.02,210.415 292.353,211.915 293.5,214C 292.305,219.059 291.638,224.225 291.5,229.5C 290.773,213.593 290.773,197.593 291.5,181.5C 291.342,178.098 291.676,174.764 292.5,171.5C 293.391,170.739 294.058,169.739 294.5,168.5C 293.531,160.556 293.198,152.556 293.5,144.5C 294.5,144.5 295.5,144.5 296.5,144.5 Z"/></g>
<g><path style="opacity:0.83" fill="#2d0b8f" d="M 296.5,106.5 C 296.5,106.167 296.5,105.833 296.5,105.5C 297.833,105.833 299.167,106.167 300.5,106.5C 301.58,109.743 301.747,113.076 301,116.5C 299.738,120.313 299.071,124.313 299,128.5C 297.603,129.226 296.769,130.393 296.5,132C 297.618,134.059 298.285,136.226 298.5,138.5C 297.448,138.351 296.448,138.517 295.5,139C 298.603,139.602 300.603,141.435 301.5,144.5C 299.984,148.713 298.65,153.046 297.5,157.5C 298.325,158.386 299.325,158.719 300.5,158.5C 300.251,161.002 299.917,163.502 299.5,166C 302.079,170.515 302.079,175.015 299.5,179.5C 300.677,187.699 300.677,195.866 299.5,204C 300.899,205.062 301.899,206.395 302.5,208C 301.021,211.586 301.687,214.753 304.5,217.5C 303.833,218.5 303.167,219.5 302.5,220.5C 303.592,222.183 304.259,224.016 304.5,226C 303.262,228.76 302.262,231.594 301.5,234.5C 300.975,235.192 300.308,235.692 299.5,236C 303.346,238.75 307.013,241.584 310.5,244.5C 312.617,243.468 314.783,243.468 317,244.5C 321.045,247.374 325.545,249.04 330.5,249.5C 331.404,250.209 331.737,251.209 331.5,252.5C 329.533,252.261 327.699,252.594 326,253.5C 324.56,250.665 322.727,250.165 320.5,252C 321.167,252.333 321.833,252.667 322.5,253C 318.083,254.568 316.083,253.068 316.5,248.5C 313.61,248.722 310.943,248.055 308.5,246.5C 307.808,247.025 307.308,247.692 307,248.5C 305.878,246.58 305.044,244.58 304.5,242.5C 302.833,242.5 301.167,242.5 299.5,242.5C 297.958,241.837 296.291,241.17 294.5,240.5C 295.376,239.749 296.376,239.249 297.5,239C 296.663,237.989 296.33,236.822 296.5,235.5C 292.511,237.122 291.511,235.789 293.5,231.5C 293.145,230.478 292.478,229.811 291.5,229.5C 291.638,224.225 292.305,219.059 293.5,214C 292.353,211.915 293.02,210.415 295.5,209.5C 294.585,208.672 293.919,207.672 293.5,206.5C 294.724,202.88 294.391,199.38 292.5,196C 292.439,194.289 293.106,192.956 294.5,192C 292.582,190.23 292.082,188.063 293,185.5C 293.556,187.595 294.056,187.762 294.5,186C 293.421,181.542 293.254,177.042 294,172.5C 294.833,171.667 295.667,170.833 296.5,170C 295.646,168.119 295.979,166.286 297.5,164.5C 295.189,157.998 294.856,151.331 296.5,144.5C 296.119,143.069 295.119,142.236 293.5,142C 294.008,136.409 294.508,130.576 295,124.5C 295.5,124 296,123.5 296.5,123C 295.074,120.289 295.408,117.789 297.5,115.5C 297.525,112.418 297.192,109.418 296.5,106.5 Z"/></g>
<g><path style="opacity:0.781" fill="#a5155f" d="M 291.5,181.5 C 290.773,197.593 290.773,213.593 291.5,229.5C 292.478,229.811 293.145,230.478 293.5,231.5C 291.511,235.789 292.511,237.122 296.5,235.5C 296.33,236.822 296.663,237.989 297.5,239C 296.376,239.249 295.376,239.749 294.5,240.5C 296.291,241.17 297.958,241.837 299.5,242.5C 299.904,243.756 300.571,244.923 301.5,246C 301.333,246.5 301.167,247 301,247.5C 300.023,246.226 299.189,246.226 298.5,247.5C 295.122,248.109 293.122,246.776 292.5,243.5C 291.983,239.778 291.15,236.112 290,232.5C 289.333,215.833 289.333,199.167 290,182.5C 290.383,181.944 290.883,181.611 291.5,181.5 Z"/></g>
<g><path style="opacity:0.88" fill="#801c73" d="M 299.5,242.5 C 301.167,242.5 302.833,242.5 304.5,242.5C 305.044,244.58 305.878,246.58 307,248.5C 307.308,247.692 307.808,247.025 308.5,246.5C 310.943,248.055 313.61,248.722 316.5,248.5C 316.083,253.068 318.083,254.568 322.5,253C 321.833,252.667 321.167,252.333 320.5,252C 322.727,250.165 324.56,250.665 326,253.5C 327.699,252.594 329.533,252.261 331.5,252.5C 331.5,253.167 331.833,253.5 332.5,253.5C 332.81,255.144 333.81,256.144 335.5,256.5C 335.833,257.167 336.167,257.833 336.5,258.5C 335.742,260.981 335.742,263.648 336.5,266.5C 335.609,264.709 334.609,262.876 333.5,261C 328.445,259.986 323.445,258.819 318.5,257.5C 315.344,256.958 312.511,255.625 310,253.5C 309.586,253.957 309.086,254.291 308.5,254.5C 306.477,252.827 304.144,252.16 301.5,252.5C 301.279,250.336 300.279,248.67 298.5,247.5C 299.189,246.226 300.023,246.226 301,247.5C 301.167,247 301.333,246.5 301.5,246C 300.571,244.923 299.904,243.756 299.5,242.5 Z"/></g>
<g><path style="opacity:0.976" fill="#6a6db9" d="M 336.5,258.5 C 336.858,260.701 338.192,262.035 340.5,262.5C 341.314,264.766 341.814,267.1 342,269.5C 345.299,271.465 347.965,274.132 350,277.5C 351.241,279.548 351.408,281.548 350.5,283.5C 344.806,279.402 340.139,273.735 336.5,266.5C 335.742,263.648 335.742,260.981 336.5,258.5 Z"/></g>
<g><path style="opacity:0.967" fill="#cb3563" d="M 318.5,257.5 C 323.445,258.819 328.445,259.986 333.5,261C 334.609,262.876 335.609,264.709 336.5,266.5C 340.139,273.735 344.806,279.402 350.5,283.5C 350.5,284.5 350.5,285.5 350.5,286.5C 345.792,286.459 343.459,284.126 343.5,279.5C 342.448,279.649 341.448,279.483 340.5,279C 337.047,274.085 334.714,268.585 333.5,262.5C 329.395,262.766 325.395,262.266 321.5,261C 319.937,260.241 318.937,259.074 318.5,257.5 Z"/></g>
<g><path style="opacity:0.004" fill="#fe0000" d="M 369.5,328.5 C 368.833,328.167 368.167,327.833 367.5,327.5C 367.335,323.818 367.501,320.152 368,316.5C 369.424,320.297 369.924,324.297 369.5,328.5 Z"/></g>
<g><path style="opacity:0.008" fill="#fff9a9" d="M 367.5,327.5 C 368.167,327.833 368.833,328.167 369.5,328.5C 369.5,329.167 369.5,329.833 369.5,330.5C 368.833,330.5 368.167,330.5 367.5,330.5C 367.5,329.5 367.5,328.5 367.5,327.5 Z"/></g>
<g><path style="opacity:0.005" fill="#fe0000" d="M 367.5,330.5 C 368.167,330.5 368.833,330.5 369.5,330.5C 368.833,334.5 368.167,334.5 367.5,330.5 Z"/></g>
<g><path style="opacity:0.611" fill="#fefffe" d="M 45.5,446.5 C 56.7134,445.907 67.0468,448.574 76.5,454.5C 80.7268,459.401 82.0601,464.734 80.5,470.5C 73.1907,472.537 66.1907,471.37 59.5,467C 50.0812,464.423 41.0812,465.423 32.5,470C 30.6707,471.113 29.8374,472.613 30,474.5C 33.1033,476.303 35.9367,478.47 38.5,481C 47.409,483.405 56.409,485.405 65.5,487C 86.0078,491.856 91.5078,503.69 82,522.5C 69.6801,537.498 53.8468,542.998 34.5,539C 28.9886,537.802 23.6553,536.136 18.5,534C 10.4488,529.864 9.44877,524.364 15.5,517.5C 17.2464,516.605 19.0797,515.938 21,515.5C 33.8518,521.049 47.0185,521.882 60.5,518C 63.7983,515.536 66.1316,512.37 67.5,508.5C 66.91,507.201 65.91,506.368 64.5,506C 55.1575,503.999 45.8241,501.999 36.5,500C 24.9233,496.419 16.4233,489.252 11,478.5C 9.76331,468.479 13.2633,460.645 21.5,455C 28.8687,450.046 36.8687,447.212 45.5,446.5 Z"/></g>
<g><path style="opacity:0.642" fill="#fefffe" d="M 216.5,448.5 C 221.455,449.524 226.455,450.357 231.5,451C 246.836,451.106 262.169,451.106 277.5,451C 287.544,452.12 296.044,456.286 303,463.5C 311.983,477.741 309.817,489.908 296.5,500C 288.833,503 281.167,506 273.5,509C 281.658,513.167 288.824,518.667 295,525.5C 297.877,529.789 298.877,534.456 298,539.5C 294.655,545.507 290.155,547.007 284.5,544C 281.19,538.694 277.19,534.027 272.5,530C 267.373,527.603 262.373,524.936 257.5,522C 252.885,520.345 248.218,519.345 243.5,519C 244.91,522.044 245.577,525.044 245.5,528C 242.626,540.207 236.959,541.707 228.5,532.5C 221.587,509.588 214.754,486.588 208,463.5C 206.902,456.133 209.735,451.133 216.5,448.5 Z M 257.5,468.5 C 265.165,469.072 272.832,469.905 280.5,471C 283.412,472.373 286.246,473.873 289,475.5C 290.291,480.562 288.458,484.062 283.5,486C 269.197,490.601 254.864,495.101 240.5,499.5C 239.833,499.167 239.167,498.833 238.5,498.5C 235.079,488.955 231.746,479.455 228.5,470C 234.18,469.445 239.846,469.612 245.5,470.5C 249.713,470.282 253.713,469.616 257.5,468.5 Z"/></g>
<g><path style="opacity:0.609" fill="#fefffe" d="M 368.5,452.5 C 376.515,452.28 384.182,453.78 391.5,457C 397.437,461.811 399.604,467.978 398,475.5C 390.305,476.96 383.138,475.46 376.5,471C 375.167,470.333 373.833,470.333 372.5,471C 360.397,476.304 350.23,484.137 342,494.5C 343.485,505.962 346.818,516.962 352,527.5C 355.366,532.532 359.699,536.532 365,539.5C 368,538.5 371,537.5 374,536.5C 381.063,531.924 388.23,527.591 395.5,523.5C 398.525,524.429 401.358,525.762 404,527.5C 404.667,531.167 404.667,534.833 404,538.5C 392.929,548.452 380.096,554.786 365.5,557.5C 354.054,556.566 345.221,551.232 339,541.5C 330.865,528.096 325.698,513.596 323.5,498C 323.669,490.826 325.836,484.326 330,478.5C 335.874,472.957 342.041,467.79 348.5,463C 354.86,458.656 361.526,455.156 368.5,452.5 Z"/></g>
<g><path style="opacity:0.582" fill="#fefffe" d="M 516.5,452.5 C 522.173,451.839 527.506,452.672 532.5,455C 537.865,460.285 537.532,465.285 531.5,470C 519.482,471.302 507.482,472.802 495.5,474.5C 496.194,477.088 497.36,479.421 499,481.5C 499.147,495.834 498.813,510.168 498,524.5C 497.298,529.683 495.964,534.683 494,539.5C 485.329,545.156 479.829,542.989 477.5,533C 480.283,516.979 481.45,501.146 481,485.5C 481.012,481.727 482.179,478.394 484.5,475.5C 476.855,474.669 469.188,474.169 461.5,474C 457.557,472.39 454.557,469.723 452.5,466C 457.451,457.069 465.117,453.569 475.5,455.5C 482.932,456.376 490.098,456.71 497,456.5C 503.468,454.635 509.968,453.302 516.5,452.5 Z"/></g>
<g><path style="opacity:0.576" fill="#fefffe" d="M 111.5,455.5 C 131.113,456.875 150.78,457.708 170.5,458C 177.578,458.74 180.411,462.573 179,469.5C 177.878,471.624 176.378,473.457 174.5,475C 163.215,476.217 151.882,476.884 140.5,477C 141.717,478.648 142.55,480.481 143,482.5C 145.221,498.328 147.388,514.161 149.5,530C 150.201,540.618 145.534,544.618 135.5,542C 133.622,540.457 132.122,538.624 131,536.5C 129.395,519.266 127.229,502.099 124.5,485C 124.658,481.522 125.658,478.355 127.5,475.5C 120.478,474.791 113.478,473.957 106.5,473C 102.754,471.631 100.088,469.131 98.5,465.5C 101.716,460.606 106.049,457.273 111.5,455.5 Z"/></g>
<g><path style="opacity:0.584" fill="#fefffe" d="M 422.5,455.5 C 423.978,455.238 425.311,455.571 426.5,456.5C 429.718,460.642 431.884,465.308 433,470.5C 433.703,494.179 434.369,517.846 435,541.5C 434.035,545.802 431.368,547.802 427,547.5C 423.066,547.904 420.399,546.238 419,542.5C 416.926,535.344 415.926,528.011 416,520.5C 415.333,503.167 415.333,485.833 416,468.5C 417.509,463.828 419.676,459.495 422.5,455.5 Z"/></g>
<g><path style="opacity:0.606" fill="#fefffe" d="M 555.5,460.5 C 561.453,460.988 566.786,463.155 571.5,467C 575.692,472.519 579.858,478.019 584,483.5C 591.136,478.363 597.636,472.53 603.5,466C 608.577,462.295 614.077,461.129 620,462.5C 621.865,466.944 621.532,471.277 619,475.5C 617.171,477.156 615.837,479.156 615,481.5C 609.097,487.74 602.931,493.573 596.5,499C 598.453,513.431 598.953,527.931 598,542.5C 597.594,545.494 596.094,547.661 593.5,549C 588.848,550.193 584.681,549.36 581,546.5C 580.131,544.419 579.631,542.253 579.5,540C 580.687,529.824 580.521,519.657 579,509.5C 577.333,507.833 575.667,506.167 574,504.5C 567.83,494.156 561.163,484.156 554,474.5C 552.675,470.572 552.342,466.572 553,462.5C 553.995,461.934 554.828,461.267 555.5,460.5 Z"/></g>
<g><path style="opacity:0.61" fill="#fefffe" d="M 184.5,483.5 C 187.724,483.203 190.724,483.87 193.5,485.5C 200.672,493.201 204.172,502.201 204,512.5C 202.833,513.667 201.667,514.833 200.5,516C 175.439,523.227 168.272,514.393 179,489.5C 180.107,486.738 181.94,484.738 184.5,483.5 Z"/></g>
<g><path style="opacity:0.578" fill="#fefffe" d="M 174.5,525.5 C 185.18,526.468 195.847,527.635 206.5,529C 208.667,530.5 210.833,532 213,533.5C 213.986,535.778 214.82,538.111 215.5,540.5C 214.265,543.044 213.099,543.044 212,540.5C 210.235,543.473 207.735,545.64 204.5,547C 192.831,547.728 181.164,548.061 169.5,548C 164.247,545.329 162.414,541.162 164,535.5C 167.461,532.082 170.961,528.749 174.5,525.5 Z"/></g>
</svg>
