<?xml version="1.0" encoding="UTF-8"?>
<!DOCTYPE svg PUBLIC "-//W3C//DTD SVG 1.1//EN" "http://www.w3.org/Graphics/SVG/1.1/DTD/svg11.dtd">
<svg xmlns="http://www.w3.org/2000/svg" version="1.1" width="128px" height="128px" style="shape-rendering:geometricPrecision; text-rendering:geometricPrecision; image-rendering:optimizeQuality; fill-rule:evenodd; clip-rule:evenodd" xmlns:xlink="http://www.w3.org/1999/xlink">
<g><path style="opacity:0.909" fill="#fefffe" d="M 127.5,47.5 C 127.5,65.1667 127.5,82.8333 127.5,100.5C 125.937,110.643 120.27,117.476 110.5,121C 79.1667,121.667 47.8333,121.667 16.5,121C 7.03275,117.706 1.36608,111.206 -0.5,101.5C -0.5,83.1667 -0.5,64.8333 -0.5,46.5C 3.37024,31.1089 13.3702,24.2756 29.5,26C 24.7948,23.2468 21.7948,19.2468 20.5,14C 23.2718,5.31218 28.6051,3.31218 36.5,8C 42.6565,13.3236 48.3232,19.157 53.5,25.5C 60.1667,26.8333 66.8333,26.8333 73.5,25.5C 78.5927,19.6842 83.926,14.0175 89.5,8.5C 97.6142,3.19401 103.281,5.02735 106.5,14C 105.773,15.3988 105.273,16.8988 105,18.5C 102.527,20.973 100.027,23.473 97.5,26C 113.94,24.5332 123.94,31.6999 127.5,47.5 Z M 21.5,43.5 C 49.5079,43.1669 77.5079,43.5002 105.5,44.5C 107.839,45.4177 109.339,47.0844 110,49.5C 110.812,66.3651 110.645,83.1985 109.5,100C 108.495,101.672 107.161,103.005 105.5,104C 77.1667,104.667 48.8333,104.667 20.5,104C 18.945,102.417 17.7783,100.584 17,98.5C 16.3333,82.1667 16.3333,65.8333 17,49.5C 18.7168,47.6229 20.2168,45.6229 21.5,43.5 Z"/></g>
<g><path style="opacity:0.811" fill="#fefffe" d="M 38.5,57.5 C 46.2264,58.1093 49.5597,62.276 48.5,70C 49.4599,79.1442 45.4599,83.4775 36.5,83C 34.6667,81.1667 32.8333,79.3333 31,77.5C 30.3333,72.5 30.3333,67.5 31,62.5C 33.1699,60.1769 35.6699,58.5103 38.5,57.5 Z"/></g>
<g><path style="opacity:0.812" fill="#fefffe" d="M 85.5,57.5 C 92.9987,58.3465 96.6654,62.5132 96.5,70C 97.2223,77.2725 94.0557,81.7725 87,83.5C 80.0251,81.7338 77.1918,77.2338 78.5,70C 78.4276,66.7104 78.9276,63.5438 80,60.5C 82.0581,59.7709 83.8914,58.7709 85.5,57.5 Z"/></g>
</svg>
